<?xml version="1.0" encoding="UTF-8" standalone="no"?>
<!-- Created with Inkscape (http://www.inkscape.org/) -->

<svg
   width="1920"
   height="1080"
   viewBox="0 0 1920 1080"
   version="1.1"
   id="svg1"
   inkscape:version="1.4.2 (ebf0e94, 2025-05-08)"
   sodipodi:docname="03_styleframe.svg"
   xmlns:inkscape="http://www.inkscape.org/namespaces/inkscape"
   xmlns:sodipodi="http://sodipodi.sourceforge.net/DTD/sodipodi-0.dtd"
   xmlns="http://www.w3.org/2000/svg"
   xmlns:svg="http://www.w3.org/2000/svg">
  <sodipodi:namedview
     id="namedview1"
     pagecolor="#ffffff"
     bordercolor="#000000"
     borderopacity="0.25"
     inkscape:showpageshadow="2"
     inkscape:pageopacity="0.0"
     inkscape:pagecheckerboard="0"
     inkscape:deskcolor="#d1d1d1"
     inkscape:document-units="px"
     inkscape:zoom="3.1822916"
     inkscape:cx="1383.1228"
     inkscape:cy="359.64649"
     inkscape:window-width="1920"
     inkscape:window-height="1043"
     inkscape:window-x="26"
     inkscape:window-y="23"
     inkscape:window-maximized="0"
     inkscape:current-layer="layer1" />
  <defs
     id="defs1">
    <rect
       x="65.771347"
       y="951.90692"
       width="922.57648"
       height="95.101807"
       id="rect24-36-5" />
    <filter
       style="color-interpolation-filters:sRGB"
       inkscape:label="Blur"
       id="filter50-6"
       x="-0.035957138"
       y="-0.47954286"
       width="1.0719143"
       height="1.9590857">
      <feGaussianBlur
         stdDeviation="9 9"
         result="blur"
         id="feGaussianBlur50-2" />
    </filter>
    <rect
       x="65.771347"
       y="951.90692"
       width="922.57648"
       height="95.101807"
       id="rect24" />
  </defs>
  <g
     inkscape:label="Layer 1"
     inkscape:groupmode="layer"
     id="layer1">
    <rect
       style="fill:#131313;fill-opacity:1;stroke:#000000;stroke-width:1.134;stroke-dasharray:none;stroke-opacity:1"
       id="rect1"
       width="1918.9877"
       height="1083.7405"
       x="-1.7522436"
       y="4.9504089"
       ry="6.2490358" />
    <path
       style="fill:#e8a0aa;fill-opacity:1;stroke:#000000;stroke-width:0;stroke-dasharray:none;stroke-opacity:1"
       d="m 715.12791,521.20651 -1.40738,17.6802 22.12901,0.63853 2.13344,-15.9862 c -8.91256,4.5395 -18.87335,1.7364 -22.85507,-2.33253 z"
       id="path13"
       inkscape:label="Neck"
       sodipodi:nodetypes="ccccc" />
    <path
       style="display:inline;fill:#e8a0aa;fill-opacity:1;stroke:#000000;stroke-width:0;stroke-dasharray:none;stroke-opacity:1"
       id="path6-9"
       sodipodi:type="arc"
       sodipodi:cx="728.3092"
       sodipodi:cy="484.60553"
       sodipodi:rx="28.879595"
       sodipodi:ry="41.524845"
       sodipodi:start="0"
       sodipodi:end="6.2805041"
       sodipodi:open="true"
       sodipodi:arc-type="arc"
       d="m 757.1888,484.60553 a 28.879595,41.524845 0 0 1 -28.86024,41.52484 28.879595,41.524845 0 0 1 -28.89892,-41.46917 28.879595,41.524845 0 0 1 28.82149,-41.58043 28.879595,41.524845 0 0 1 28.93757,41.41342"
       inkscape:label="Head" />
    <path
       style="fill:#eeeeee;fill-opacity:1;stroke:#000000;stroke-width:0;stroke-dasharray:none;stroke-opacity:1"
       d="m 754.65271,475.96581 c 0,0 -4.43345,-4.48002 -10.74654,2.27744 -5.58977,5.98311 13.1251,5.18444 10.74654,-2.27744 z"
       id="path15"
       inkscape:label="Eyes"
       sodipodi:nodetypes="csc" />
    <path
       style="fill:#3e2723;fill-opacity:1;stroke:#ffffff;stroke-width:0;stroke-dasharray:none;stroke-opacity:1"
       d="m 704.22151,459.03045 c 0,0 3.96087,2.02062 9.1997,1.94799 7.77924,-0.10785 15.6894,0.0452 21.97174,-1.43119 10.51284,-2.47044 -0.58174,13.82266 -5.48761,15.67549 -3.15639,1.19202 -15.30528,1.87277 -23.56957,2.20674 -4.58143,0.18513 -7.06322,-0.51495 -7.06322,-0.51495"
       id="path16"
       sodipodi:nodetypes="cssssc"
       inkscape:label="Arm" />
    <path
       style="fill:#000000;fill-opacity:0;stroke:#000000;stroke-width:0.218797;stroke-dasharray:none;stroke-opacity:0.230284"
       d="m 724.08218,487.42357 c 0,0 1.70167,6.23696 0.0304,7.60375 -0.91424,0.74787 -4.02907,1.42691 -5.72374,-0.0552 -1.40265,-1.22659 -1.40509,-4.65817 -2.205,-4.27101 -1.24888,0.60444 -2.68168,-12.20937 0.0776,-14.98657 1.14292,-1.15047 2.75553,-2.05123 5.79454,2.77358"
       id="path17"
       sodipodi:nodetypes="ccsssc"
       inkscape:label="Ear" />
    <path
       style="fill:#ffdd55;fill-opacity:0;stroke:#000000;stroke-width:0;stroke-dasharray:none;stroke-opacity:1"
       d="m 702.63022,474.95039 c -1.68842,-0.16271 -1.82651,-0.20439 -1.76089,-0.53169 0.71404,-3.55492 1.29364,-5.75092 2.1782,-8.25229 0.5962,-1.68589 1.81996,-4.59509 2.30076,-5.46975 l 0.22381,-0.40724 0.45065,0.17735 c 0.78742,0.30992 2.74959,0.8061 3.98172,1.00684 1.94694,0.31722 4.03548,0.35966 10.49412,0.21327 8.00121,-0.18136 10.63432,-0.3823 14.32785,-1.09344 1.86762,-0.35959 3.1675,-0.40299 3.65454,-0.12195 1.31329,0.75765 -0.62573,4.93976 -4.08129,8.80299 -2.13177,2.38311 -3.69459,3.57 -5.23396,3.97477 -1.03955,0.27338 -1.12268,0.24435 -0.63061,-0.22014 l 0.43527,-0.41097 -0.72074,-0.78937 c -1.28085,-1.40249 -2.08822,-1.86243 -3.26981,-1.86275 -1.53435,-4.3e-4 -2.70635,1.11414 -3.24196,3.08313 -0.0868,0.32149 -0.15956,0.70919 -0.16032,0.86154 -0.002,0.33616 -0.13245,0.36017 -2.95086,0.54228 -8.91591,0.57601 -13.65294,0.72335 -15.99648,0.49751 z"
       id="path22"
       inkscape:label="Hair" />
    <path
       style="fill:#592b00;fill-opacity:1;stroke:#d9ca28;stroke-width:0;stroke-dasharray:none;stroke-opacity:1"
       d="m 739.44425,474.79054 c 0,0 9.10501,-4.47466 11.07052,-3.71396 1.96536,0.76068 0.60153,-2.05836 -1.20336,-1.61089 -1.80505,0.44749 -11.15075,4.51941 -10.50903,5.05637 0.64187,0.53698 0.64187,0.26846 0.64187,0.26846 z"
       id="path28"
       inkscape:label="EyeBrow" />
    <path
       style="fill:#3970a4;fill-opacity:1;stroke:#d9ca28;stroke-width:0;stroke-dasharray:none;stroke-opacity:1"
       id="path29"
       sodipodi:type="arc"
       sodipodi:cx="751.26245"
       sodipodi:cy="477.86719"
       sodipodi:rx="2.4667988"
       sodipodi:ry="1.9688505"
       sodipodi:start="0"
       sodipodi:end="6.2805041"
       sodipodi:open="true"
       sodipodi:arc-type="arc"
       d="m 753.72925,477.86719 a 2.4667988,1.9688505 0 0 1 -2.46515,1.96885 2.4667988,1.9688505 0 0 1 -2.46845,-1.96621 2.4667988,1.9688505 0 0 1 2.46184,-1.97149 2.4667988,1.9688505 0 0 1 2.47175,1.96357"
       inkscape:label="Iris" />
    <path
       style="fill:#000000;fill-opacity:1;stroke:#d9ca28;stroke-width:0;stroke-dasharray:none;stroke-opacity:1"
       id="path30"
       sodipodi:type="arc"
       sodipodi:cx="751.58624"
       sodipodi:cy="477.99762"
       sodipodi:rx="0.70193458"
       sodipodi:ry="0.55933249"
       sodipodi:start="0"
       sodipodi:end="6.2805041"
       sodipodi:open="true"
       sodipodi:arc-type="arc"
       d="m 752.28818,477.99762 a 0.70193458,0.55933249 0 0 1 -0.70147,0.55933 0.70193458,0.55933249 0 0 1 -0.7024,-0.55858 0.70193458,0.55933249 0 0 1 0.70052,-0.56008 0.70193458,0.55933249 0 0 1 0.70334,0.55783"
       inkscape:label="Pupil" />
    <path
       style="fill:#e8a0aa;fill-opacity:1;stroke:#ffffff;stroke-width:0;stroke-dasharray:none;stroke-opacity:1"
       d="m 756.90323,482.39746 c 0,0 2.19677,3.7642 7.92447,10.74239 1.13699,1.38539 1.01093,2.07975 0.79367,2.75727 -0.86918,2.70931 -10.01255,1.20829 -10.01255,1.20829"
       id="path31"
       sodipodi:nodetypes="cssc"
       inkscape:label="Nose" />
    <path
       style="fill:#000000;fill-opacity:0.760784;stroke:#ffffff;stroke-width:0;stroke-dasharray:none;stroke-opacity:1"
       d="m 749.25249,499.13915 c -3.07951,-0.24822 -8.31089,3.98712 -8.31089,3.98712 l 7.74909,-3.61887 6.0357,1.05719 z"
       id="path32"
       inkscape:label="Mouth"
       sodipodi:nodetypes="ccccc" />
    <path
       style="fill:#ec7f7f;fill-opacity:0.760784;stroke:#ffffff;stroke-width:0;stroke-dasharray:none;stroke-opacity:1"
       d="m 720.43175,487.8118 c 0,0 4.09134,2.37157 1.20336,5.45909 0,0 -7.50062,-4.47467 -3.44947,-13.46874 0,0 2.72751,-0.93966 2.24611,8.00965 z"
       id="path34" />
    <path
       style="fill:#2a5f8f;fill-opacity:1;stroke:#ffffff;stroke-width:0;stroke-dasharray:none;stroke-opacity:1"
       d="m 720.32533,537.62553 c 2.65595,0.045 5.17139,-0.51271 7.55391,-0.29023 44.63574,4.168 42.59091,38.51211 42.59091,38.51211 l -0.0396,96.36518 h -46.96816"
       id="path35"
       sodipodi:nodetypes="csccc" />
    <path
       style="fill:#2a5f8f;fill-opacity:1;stroke:#ffffff;stroke-width:0;stroke-dasharray:none;stroke-opacity:1"
       d="m 728.17581,537.27224 c -1.091,0.018 -2.38526,-0.20118 -3.42937,-0.15218 -49.11852,2.30545 -46.95265,38.10391 -46.95265,38.10391 l -0.0259,96.94687 46.96818,0.0153"
       id="path35-5"
       sodipodi:nodetypes="csccc" />
    <path
       style="fill:#e8a0aa;fill-opacity:1;stroke:#ffffff;stroke-width:0;stroke-dasharray:none;stroke-opacity:1"
       d="m 734.72504,581.25072 c 0,0 -20.45057,-6.93478 -2.83249,-25.12276 11.92687,-12.3126 45.99015,4.67738 45.99015,4.67738 l -17.54968,-32.89852 7.1191,-2.08649 27.31442,45.13798 z"
       id="path36"
       sodipodi:nodetypes="csccccc" />
    <path
       style="fill:#2a5f8f;fill-opacity:1;stroke:#000000;stroke-width:0.608704;stroke-dasharray:none;stroke-opacity:0.0871574"
       d="m 742.53243,583.36681 6.1768,-33.03598 c 0,0 -25.46822,-9.44782 -31.64501,8.77584 0,0 -3.41054,11.33302 9.18388,21.20791 z"
       id="path37"
       sodipodi:nodetypes="ccccc"
       inkscape:label="Sleeve" />
    <path
       style="fill:#e8a0aa;fill-opacity:1;stroke:#f29393;stroke-width:0;stroke-dasharray:none;stroke-opacity:1"
       d="m 749.22829,518.17503 6.31996,-11.2721 12.29966,0.01 4.63736,17.76548 -18.3069,5.08847 z"
       id="path38"
       sodipodi:nodetypes="cccccc" />
    <path
       style="fill:#23273e;fill-opacity:1;stroke:#000000;stroke-width:0;stroke-dasharray:none;stroke-opacity:0.230284"
       d="m 770.07613,671.57734 3.85734,106.31251 -21.78234,90.61876 -31.76597,-10e-6 17.47131,-90.87189 -12.70642,-105.55311 z"
       id="path39"
       sodipodi:nodetypes="ccccccc" />
    <path
       style="fill:#23273e;fill-opacity:1;stroke:#000000;stroke-width:0;stroke-dasharray:none;stroke-opacity:0.230284"
       d="m 722.40792,671.70982 1.58824,106.31251 -19.51339,90.61876 -31.76582,-2e-5 18.37885,-90.61874 -13.61396,-105.80624 z"
       id="path39-6"
       sodipodi:nodetypes="ccccccc" />
    <path
       style="fill:#23273e;fill-opacity:1;stroke:#000000;stroke-width:0;stroke-dasharray:none;stroke-opacity:0.230284"
       d="m 700.19106,732.07422 72.83471,-0.75937 -42.43014,-59.48437 -17.4713,-0.25314 z"
       id="path40" />
    <path
       style="fill:#1d1d1d;fill-opacity:1;stroke:#000000;stroke-width:0;stroke-dasharray:none;stroke-opacity:0.230284"
       d="m 720.61201,868.25548 -3.17664,20.75625 h 63.98578 l 4.59985,-19.15119 -33.63328,-2.10208 z"
       id="path41"
       sodipodi:nodetypes="cccccc" />
    <path
       style="fill:#1d1d1d;fill-opacity:1;stroke:#000000;stroke-width:0;stroke-dasharray:none;stroke-opacity:0.230284"
       d="m 672.61205,868.58885 -3.17664,20.75625 h 63.98563 l 4.59985,-19.15119 -33.63313,-2.10208 z"
       id="path41-3"
       sodipodi:nodetypes="cccccc" />
    <text
       xml:space="preserve"
       id="text23"
       style="font-style:normal;font-variant:normal;font-weight:normal;font-stretch:normal;font-size:63.496px;font-family:'Space Mono';-inkscape-font-specification:'Space Mono, Normal';font-variant-ligatures:normal;font-variant-caps:normal;font-variant-numeric:normal;font-variant-east-asian:normal;text-align:start;writing-mode:lr-tb;direction:ltr;white-space:pre;shape-inside:url(#rect24);display:inline;fill:#ffb000;fill-opacity:1;stroke:#000000;stroke-width:1.13386"
       transform="matrix(1.0001948,0,0,0.76399779,629.83194,246.22058)"
       inkscape:label="SectionText"><tspan
         x="65.771484"
         y="1007.8618"
         id="tspan3">Who is this for?</tspan></text>
    <text
       xml:space="preserve"
       id="text23-6"
       style="font-style:normal;font-variant:normal;font-weight:normal;font-stretch:normal;font-size:63.496px;font-family:'Space Mono';-inkscape-font-specification:'Space Mono, Normal';font-variant-ligatures:normal;font-variant-caps:normal;font-variant-numeric:normal;font-variant-east-asian:normal;text-align:start;writing-mode:lr-tb;direction:ltr;white-space:pre;shape-inside:url(#rect24-36-5);display:inline;fill:#ffb000;fill-opacity:1;stroke:#000000;stroke-width:1.13386;filter:url(#filter50-6)"
       transform="matrix(1.0001948,0,0,0.76399779,630.96776,246.51478)"
       inkscape:label="SectionGlow"><tspan
         x="65.771484"
         y="1007.8618"
         id="tspan4">Who is this for?</tspan></text>
    <path
       style="fill:#ffffff;fill-opacity:0;stroke:#ffffff;stroke-width:1.93319;stroke-opacity:1"
       d="m 1161.7003,295.9274 c 0,0 -256.96479,-7.19653 -64.6001,94.35463 0,0 -192.36469,65.56845 -5.7421,87.15808 0,0 -20.0979,93.555 140.6847,54.37382 0,0 109.1024,79.96156 200.978,-2.39884 0,0 146.4271,-26.38731 18.6622,-91.95576 0,0 136.3781,-43.17925 -20.0976,-83.16 0,0 -22.9692,-151.12733 -269.8851,-58.37193 z"
       id="path1" />
    <path
       style="fill:#ffffff;fill-opacity:0;stroke:#ffffff;stroke-width:0.708488;stroke-opacity:1"
       d="m 838.99392,327.23725 c 0,0 -84.76359,-2.93025 -21.30929,38.41891 0,0 -63.4543,26.69788 -1.89415,35.48865 0,0 -6.62956,38.09332 46.40687,22.1397 0,0 35.989,32.5584 66.2956,-0.97675 0,0 48.301,-10.74427 6.156,-37.44215 0,0 44.9862,-17.58154 -6.6296,-33.86073 0,0 -7.5767,-61.53537 -89.02543,-23.76763 z"
       id="path1-8" />
    <path
       style="fill:#ffffff;fill-opacity:0;stroke:#ffffff;stroke-width:0.139156;stroke-opacity:1"
       d="m 758.26341,433.82848 c 0,0 -20.05036,-0.47789 -5.0406,6.26575 0,0 -15.00976,4.35416 -0.44806,5.78785 0,0 -1.56818,6.21265 10.97729,3.61077 0,0 8.51297,5.30996 15.68187,-0.1593 0,0 11.4253,-1.75228 1.4561,-6.10645 0,0 10.6413,-2.86737 -1.5682,-5.52235 0,0 -1.7922,-10.03582 -21.0584,-3.87627 z"
       id="path1-3" />
    <rect
       style="fill:#cd0505;fill-opacity:1;stroke:#cd0505;stroke-width:1.134;stroke-opacity:1"
       id="rect3"
       width="68.818329"
       height="45.250408"
       x="1167.0835"
       y="417.30933"
       ry="6.2490358"
       inkscape:label="Platform" />
    <path
       style="fill:#ffffff;fill-opacity:1;stroke:#cd0505;stroke-width:1.134;stroke-opacity:1"
       d="m 1189.7087,433.33552 v 16.65466 c 0,0 30.3576,-7.15443 28.5291,-7.64437 -1.8284,-0.48994 -28.5291,-9.01029 -28.5291,-9.01029 z"
       id="path3" />
    <path
       style="fill:#ffffff;fill-opacity:1;stroke:#cd0505;stroke-width:1.134;stroke-opacity:1"
       d="m 1368.1964,456.5892 -51.5352,-16.34043 c -20.7398,-10.99836 5.6563,-24.1964 5.6563,-24.1964 l 49.964,-0.31424 c 0,0 19.4212,23.63763 -4.0851,40.85107 z"
       id="path4"
       sodipodi:nodetypes="ccccc"
       inkscape:label="Advertisers" />
    <path
       style="fill:#ffffff;fill-opacity:1;stroke:#cd0505;stroke-width:1.134;stroke-opacity:1"
       d="m 1318.8609,441.19149 -6.2848,31.73813 14.0366,3.7611 v -35.18499 z"
       id="path6" />
    <path
       style="fill:#ffffff;fill-opacity:1;stroke:#cd0505;stroke-width:1.134;stroke-opacity:1"
       d="m 1368.3106,456.62202 c 0,0 -6.4438,3.8885 -6.3327,-22.44225 0,0 2.8886,-20.55355 10.7768,-18.44264"
       id="path7" />
    <path
       style="fill:#ffffff;fill-opacity:1;stroke:#cd0505;stroke-width:1.134;stroke-opacity:1"
       d="m 1159.9334,353.22823 c 0,0 37.5558,-44.66283 90.0042,0.0891"
       id="path8" />
    <path
       style="fill:#ffffff;fill-opacity:1;stroke:#cd0505;stroke-width:1.134;stroke-opacity:1"
       d="m 1159.8693,353.13417 c 0,0 37.5558,44.66283 90.0042,-0.0891"
       id="path8-9" />
    <path
       style="fill:#ffffff;fill-opacity:1;stroke:#cd0505;stroke-width:1.134;stroke-opacity:1"
       d="m 1187.8232,335.6072 c 0,0 -21.5253,18.69722 -2.0425,34.40917"
       id="path9" />
    <path
       style="fill:#ffffff;fill-opacity:1;stroke:#cd0505;stroke-width:1.134;stroke-opacity:1"
       d="m 1219.2332,335.90259 c 0,0 20.4698,19.84714 0.1564,34.46938"
       id="path9-3" />
    <path
       style="fill:#cd0505;fill-opacity:1;stroke:#cd0505;stroke-width:1.134;stroke-opacity:1"
       id="path10"
       sodipodi:type="arc"
       sodipodi:cx="1202.5139"
       sodipodi:cy="354.06873"
       sodipodi:rx="4.9492636"
       sodipodi:ry="4.3207855"
       sodipodi:start="0"
       sodipodi:end="6.2805041"
       sodipodi:open="true"
       sodipodi:arc-type="arc"
       d="m 1207.4632,354.06873 a 4.9492636,4.3207855 0 0 1 -4.946,4.32078 4.9492636,4.3207855 0 0 1 -4.9525,-4.31499 4.9492636,4.3207855 0 0 1 4.9393,-4.32657 4.9492636,4.3207855 0 0 1 4.9592,4.30919" />
    <rect
       style="fill:#ffffff;fill-opacity:1;stroke:#cd0505;stroke-width:1.134;stroke-opacity:1"
       id="rect10"
       width="65.047462"
       height="45.250408"
       x="1327.9738"
       y="332.46481"
       ry="6.2490358"
       inkscape:export-filename="ViewerOutline.svg"
       inkscape:export-xdpi="96"
       inkscape:export-ydpi="96" />
    <path
       style="fill:#ffffff;fill-opacity:1;stroke:#cd0505;stroke-width:1.134;stroke-opacity:1"
       d="m 1344.5352,377.85194 c 0.7777,-22.66445 12.3321,-24.21985 12.3321,-24.21985"
       id="path11" />
    <path
       style="fill:#ffffff;fill-opacity:1;stroke:#cd0505;stroke-width:1.134;stroke-opacity:1"
       d="m 1377.9619,377.55919 c -0.7777,-22.66445 -12.3321,-24.21985 -12.3321,-24.21985"
       id="path11-0" />
    <ellipse
       style="fill:#ffffff;fill-opacity:1;stroke:#cd0505;stroke-width:1.134;stroke-opacity:1"
       id="path12"
       cx="1361.2002"
       cy="347.52158"
       rx="6.2216139"
       ry="6.3327141" />
  </g>
</svg>
