<?xml version="1.0" encoding="UTF-8"?>
<svg xmlns="http://www.w3.org/2000/svg" xmlns:xlink="http://www.w3.org/1999/xlink" width="854" height="480" viewBox="0 0 854 480">
<defs>
<g>
<g id="glyph-0-0">
<path d="M 4.65625 0 L 4.65625 -11.421875 L 0.5 -11.421875 L 0.5 -12.453125 L 9.953125 -12.453125 L 9.953125 -11.421875 L 5.796875 -11.421875 L 5.796875 0 Z "/>
</g>
<g id="glyph-0-1">
<path d="M 1.5625 0 L 1.5625 -12.453125 L 2.625 -12.453125 L 2.625 -7.125 L 2.84375 -7.125 C 2.988281 -7.414062 3.1875 -7.6875 3.4375 -7.9375 C 3.695312 -8.195312 4.03125 -8.40625 4.4375 -8.5625 C 4.84375 -8.71875 5.351562 -8.796875 5.96875 -8.796875 C 6.601562 -8.796875 7.179688 -8.664062 7.703125 -8.40625 C 8.222656 -8.144531 8.640625 -7.753906 8.953125 -7.234375 C 9.265625 -6.710938 9.421875 -6.054688 9.421875 -5.265625 L 9.421875 0 L 8.359375 0 L 8.359375 -5.1875 C 8.359375 -6.132812 8.117188 -6.8125 7.640625 -7.21875 C 7.171875 -7.632812 6.539062 -7.84375 5.75 -7.84375 C 4.851562 -7.84375 4.109375 -7.550781 3.515625 -6.96875 C 2.921875 -6.382812 2.625 -5.503906 2.625 -4.328125 L 2.625 0 Z "/>
</g>
<g id="glyph-0-2">
<path d="M 5.546875 0.25 C 4.660156 0.25 3.882812 0.0625 3.21875 -0.3125 C 2.5625 -0.6875 2.050781 -1.207031 1.6875 -1.875 C 1.320312 -2.550781 1.140625 -3.332031 1.140625 -4.21875 L 1.140625 -4.421875 C 1.140625 -5.316406 1.320312 -6.097656 1.6875 -6.765625 C 2.050781 -7.429688 2.554688 -7.953125 3.203125 -8.328125 C 3.847656 -8.703125 4.585938 -8.890625 5.421875 -8.890625 C 6.222656 -8.890625 6.9375 -8.71875 7.5625 -8.375 C 8.1875 -8.039062 8.675781 -7.554688 9.03125 -6.921875 C 9.382812 -6.285156 9.5625 -5.53125 9.5625 -4.65625 L 9.5625 -4.09375 L 2.203125 -4.09375 C 2.242188 -3.007812 2.570312 -2.175781 3.1875 -1.59375 C 3.8125 -1.007812 4.597656 -0.71875 5.546875 -0.71875 C 6.347656 -0.71875 6.972656 -0.898438 7.421875 -1.265625 C 7.867188 -1.628906 8.210938 -2.078125 8.453125 -2.609375 L 9.40625 -2.1875 C 9.226562 -1.789062 8.984375 -1.40625 8.671875 -1.03125 C 8.359375 -0.664062 7.953125 -0.359375 7.453125 -0.109375 C 6.953125 0.128906 6.316406 0.25 5.546875 0.25 Z M 2.21875 -5.015625 L 8.484375 -5.015625 C 8.429688 -5.953125 8.125 -6.671875 7.5625 -7.171875 C 7.007812 -7.679688 6.296875 -7.9375 5.421875 -7.9375 C 4.554688 -7.9375 3.835938 -7.679688 3.265625 -7.171875 C 2.703125 -6.671875 2.351562 -5.953125 2.21875 -5.015625 Z "/>
</g>
<g id="glyph-0-3">
</g>
<g id="glyph-0-4">
<path d="M 0.5 0 L 4.5625 -12.453125 L 6.59375 -12.453125 L 10.671875 0 L 9.484375 0 L 8.40625 -3.3125 L 2.75 -3.3125 L 1.6875 0 Z M 3.078125 -4.34375 L 8.09375 -4.34375 L 5.6875 -11.765625 L 5.484375 -11.765625 Z "/>
</g>
<g id="glyph-0-5">
<path d="M 1.5625 0 L 1.5625 -8.640625 L 2.59375 -8.640625 L 2.59375 -7.046875 L 2.8125 -7.046875 C 3.019531 -7.503906 3.367188 -7.910156 3.859375 -8.265625 C 4.347656 -8.628906 5.050781 -8.8125 5.96875 -8.8125 C 6.601562 -8.8125 7.179688 -8.679688 7.703125 -8.421875 C 8.222656 -8.160156 8.640625 -7.765625 8.953125 -7.234375 C 9.265625 -6.710938 9.421875 -6.054688 9.421875 -5.265625 L 9.421875 0 L 8.359375 0 L 8.359375 -5.1875 C 8.359375 -6.132812 8.117188 -6.816406 7.640625 -7.234375 C 7.171875 -7.648438 6.539062 -7.859375 5.75 -7.859375 C 4.851562 -7.859375 4.109375 -7.5625 3.515625 -6.96875 C 2.921875 -6.382812 2.625 -5.503906 2.625 -4.328125 L 2.625 0 Z "/>
</g>
<g id="glyph-0-6">
<path d="M 4.21875 0.25 C 3.613281 0.25 3.0625 0.144531 2.5625 -0.0625 C 2.070312 -0.269531 1.6875 -0.570312 1.40625 -0.96875 C 1.125 -1.375 0.984375 -1.863281 0.984375 -2.4375 C 0.984375 -3.019531 1.125 -3.5 1.40625 -3.875 C 1.6875 -4.257812 2.070312 -4.546875 2.5625 -4.734375 C 3.050781 -4.921875 3.585938 -5.015625 4.171875 -5.015625 L 7.34375 -5.015625 L 7.34375 -5.703125 C 7.34375 -6.398438 7.140625 -6.945312 6.734375 -7.34375 C 6.335938 -7.738281 5.753906 -7.9375 4.984375 -7.9375 C 4.222656 -7.9375 3.617188 -7.75 3.171875 -7.375 C 2.722656 -7 2.425781 -6.5 2.28125 -5.875 L 1.25 -6.171875 C 1.382812 -6.679688 1.601562 -7.140625 1.90625 -7.546875 C 2.21875 -7.953125 2.628906 -8.273438 3.140625 -8.515625 C 3.648438 -8.765625 4.265625 -8.890625 4.984375 -8.890625 C 6.066406 -8.890625 6.90625 -8.601562 7.5 -8.03125 C 8.101562 -7.46875 8.40625 -6.675781 8.40625 -5.65625 L 8.40625 -1.453125 C 8.40625 -1.097656 8.570312 -0.921875 8.90625 -0.921875 L 9.75 -0.921875 L 9.75 0 L 8.609375 0 C 8.242188 0 7.953125 -0.109375 7.734375 -0.328125 C 7.523438 -0.546875 7.421875 -0.847656 7.421875 -1.234375 L 7.421875 -1.34375 L 7.234375 -1.34375 C 7.078125 -1.082031 6.878906 -0.828125 6.640625 -0.578125 C 6.398438 -0.335938 6.082031 -0.140625 5.6875 0.015625 C 5.300781 0.171875 4.8125 0.25 4.21875 0.25 Z M 4.28125 -0.71875 C 5.195312 -0.71875 5.9375 -0.988281 6.5 -1.53125 C 7.0625 -2.082031 7.34375 -2.863281 7.34375 -3.875 L 7.34375 -4.09375 L 4.203125 -4.09375 C 3.578125 -4.09375 3.0625 -3.957031 2.65625 -3.6875 C 2.25 -3.425781 2.046875 -3.015625 2.046875 -2.453125 C 2.046875 -1.898438 2.253906 -1.472656 2.671875 -1.171875 C 3.097656 -0.867188 3.632812 -0.71875 4.28125 -0.71875 Z "/>
</g>
<g id="glyph-0-7">
<path d="M 1.5625 0 L 1.5625 -12.453125 L 2.625 -12.453125 L 2.625 0 Z "/>
</g>
<g id="glyph-0-8">
<path d="M 2.65625 3.5625 L 2.65625 2.59375 L 7.703125 2.59375 C 8.054688 2.59375 8.234375 2.414062 8.234375 2.0625 L 8.234375 -1.5 L 8.015625 -1.5 C 7.878906 -1.207031 7.679688 -0.929688 7.421875 -0.671875 C 7.171875 -0.421875 6.835938 -0.21875 6.421875 -0.0625 C 6.015625 0.09375 5.503906 0.171875 4.890625 0.171875 C 4.273438 0.171875 3.703125 0.0390625 3.171875 -0.21875 C 2.640625 -0.476562 2.21875 -0.867188 1.90625 -1.390625 C 1.59375 -1.910156 1.4375 -2.566406 1.4375 -3.359375 L 1.4375 -8.640625 L 2.5 -8.640625 L 2.5 -3.4375 C 2.5 -2.5 2.734375 -1.820312 3.203125 -1.40625 C 3.679688 -0.988281 4.320312 -0.78125 5.125 -0.78125 C 6.007812 -0.78125 6.75 -1.070312 7.34375 -1.65625 C 7.9375 -2.238281 8.234375 -3.117188 8.234375 -4.296875 L 8.234375 -8.640625 L 9.296875 -8.640625 L 9.296875 2.203125 C 9.296875 2.628906 9.179688 2.960938 8.953125 3.203125 C 8.722656 3.441406 8.375 3.5625 7.90625 3.5625 Z "/>
</g>
<g id="glyph-0-9">
<path d="M 5 0.25 C 3.957031 0.25 3.0625 0 2.3125 -0.5 C 1.570312 -1 1.117188 -1.820312 0.953125 -2.96875 L 2.015625 -3.171875 C 2.109375 -2.535156 2.296875 -2.035156 2.578125 -1.671875 C 2.867188 -1.316406 3.222656 -1.0625 3.640625 -0.90625 C 4.066406 -0.75 4.519531 -0.671875 5 -0.671875 C 5.707031 -0.671875 6.273438 -0.816406 6.703125 -1.109375 C 7.140625 -1.398438 7.359375 -1.800781 7.359375 -2.3125 C 7.359375 -2.832031 7.15625 -3.191406 6.75 -3.390625 C 6.34375 -3.597656 5.800781 -3.757812 5.125 -3.875 L 4.296875 -4.015625 C 3.753906 -4.109375 3.265625 -4.253906 2.828125 -4.453125 C 2.390625 -4.648438 2.039062 -4.914062 1.78125 -5.25 C 1.53125 -5.582031 1.40625 -5.992188 1.40625 -6.484375 C 1.40625 -7.234375 1.695312 -7.820312 2.28125 -8.25 C 2.875 -8.675781 3.65625 -8.890625 4.625 -8.890625 C 5.601562 -8.890625 6.390625 -8.664062 6.984375 -8.21875 C 7.585938 -7.78125 7.96875 -7.140625 8.125 -6.296875 L 7.125 -6.078125 C 7.007812 -6.765625 6.726562 -7.25 6.28125 -7.53125 C 5.84375 -7.820312 5.289062 -7.96875 4.625 -7.96875 C 3.96875 -7.96875 3.441406 -7.84375 3.046875 -7.59375 C 2.660156 -7.34375 2.46875 -6.972656 2.46875 -6.484375 C 2.46875 -6.015625 2.644531 -5.671875 3 -5.453125 C 3.351562 -5.234375 3.84375 -5.070312 4.46875 -4.96875 L 5.28125 -4.8125 C 5.875 -4.71875 6.40625 -4.578125 6.875 -4.390625 C 7.351562 -4.210938 7.726562 -3.957031 8 -3.625 C 8.28125 -3.289062 8.421875 -2.851562 8.421875 -2.3125 C 8.421875 -1.488281 8.113281 -0.851562 7.5 -0.40625 C 6.882812 0.03125 6.050781 0.25 5 0.25 Z "/>
</g>
<g id="glyph-0-10">
<path d="M 1.5625 0 L 1.5625 -8.640625 L 2.625 -8.640625 L 2.625 0 Z M 2.09375 -10.140625 C 1.832031 -10.140625 1.613281 -10.226562 1.4375 -10.40625 C 1.257812 -10.582031 1.171875 -10.800781 1.171875 -11.0625 C 1.171875 -11.332031 1.257812 -11.550781 1.4375 -11.71875 C 1.613281 -11.894531 1.832031 -11.984375 2.09375 -11.984375 C 2.375 -11.984375 2.597656 -11.894531 2.765625 -11.71875 C 2.941406 -11.550781 3.03125 -11.332031 3.03125 -11.0625 C 3.03125 -10.800781 2.941406 -10.582031 2.765625 -10.40625 C 2.597656 -10.226562 2.375 -10.140625 2.09375 -10.140625 Z "/>
</g>
<g id="glyph-0-11">
<path d="M 5.90625 0.25 C 5.007812 0.25 4.226562 0.09375 3.5625 -0.21875 C 2.894531 -0.53125 2.367188 -1.003906 1.984375 -1.640625 C 1.609375 -2.285156 1.421875 -3.097656 1.421875 -4.078125 L 1.421875 -12.453125 L 2.5625 -12.453125 L 2.5625 -4.078125 C 2.5625 -2.960938 2.851562 -2.132812 3.4375 -1.59375 C 4.03125 -1.050781 4.851562 -0.78125 5.90625 -0.78125 C 6.957031 -0.78125 7.773438 -1.050781 8.359375 -1.59375 C 8.953125 -2.132812 9.25 -2.960938 9.25 -4.078125 L 9.25 -12.453125 L 10.390625 -12.453125 L 10.390625 -4.078125 C 10.390625 -3.097656 10.203125 -2.285156 9.828125 -1.640625 C 9.453125 -1.003906 8.925781 -0.53125 8.25 -0.21875 C 7.570312 0.09375 6.789062 0.25 5.90625 0.25 Z "/>
</g>
<g id="glyph-1-0">
<path d="M 1.171875 0 L 1.171875 -12.453125 L 5.640625 -12.453125 L 8.109375 -1.59375 L 8.421875 -1.59375 L 8.421875 -12.453125 L 10.734375 -12.453125 L 10.734375 0 L 6.28125 0 L 3.8125 -10.84375 L 3.484375 -10.84375 L 3.484375 0 Z "/>
</g>
<g id="glyph-1-1">
<path d="M 5.4375 0.25 C 4.5625 0.25 3.773438 0.0703125 3.078125 -0.28125 C 2.378906 -0.632812 1.828125 -1.148438 1.421875 -1.828125 C 1.015625 -2.503906 0.8125 -3.316406 0.8125 -4.265625 L 0.8125 -4.546875 C 0.8125 -5.492188 1.015625 -6.304688 1.421875 -6.984375 C 1.828125 -7.660156 2.378906 -8.175781 3.078125 -8.53125 C 3.773438 -8.882812 4.5625 -9.0625 5.4375 -9.0625 C 6.3125 -9.0625 7.097656 -8.882812 7.796875 -8.53125 C 8.503906 -8.175781 9.054688 -7.660156 9.453125 -6.984375 C 9.859375 -6.304688 10.0625 -5.492188 10.0625 -4.546875 L 10.0625 -4.265625 C 10.0625 -3.316406 9.859375 -2.503906 9.453125 -1.828125 C 9.054688 -1.148438 8.503906 -0.632812 7.796875 -0.28125 C 7.097656 0.0703125 6.3125 0.25 5.4375 0.25 Z M 5.4375 -1.75 C 6.125 -1.75 6.691406 -1.96875 7.140625 -2.40625 C 7.597656 -2.851562 7.828125 -3.492188 7.828125 -4.328125 L 7.828125 -4.5 C 7.828125 -5.332031 7.601562 -5.96875 7.15625 -6.40625 C 6.707031 -6.851562 6.132812 -7.078125 5.4375 -7.078125 C 4.75 -7.078125 4.179688 -6.851562 3.734375 -6.40625 C 3.285156 -5.96875 3.0625 -5.332031 3.0625 -4.5 L 3.0625 -4.328125 C 3.0625 -3.492188 3.285156 -2.851562 3.734375 -2.40625 C 4.179688 -1.96875 4.75 -1.75 5.4375 -1.75 Z "/>
</g>
<g id="glyph-1-2">
</g>
<g id="glyph-1-3">
<path d="M 6.015625 0.25 C 4.441406 0.25 3.191406 -0.175781 2.265625 -1.03125 C 1.347656 -1.894531 0.890625 -3.128906 0.890625 -4.734375 L 0.890625 -7.71875 C 0.890625 -9.320312 1.347656 -10.550781 2.265625 -11.40625 C 3.191406 -12.269531 4.441406 -12.703125 6.015625 -12.703125 C 7.578125 -12.703125 8.816406 -12.269531 9.734375 -11.40625 C 10.660156 -10.550781 11.125 -9.320312 11.125 -7.71875 L 11.125 -4.734375 C 11.125 -3.128906 10.660156 -1.894531 9.734375 -1.03125 C 8.816406 -0.175781 7.578125 0.25 6.015625 0.25 Z M 6.015625 -1.84375 C 6.890625 -1.84375 7.566406 -2.097656 8.046875 -2.609375 C 8.535156 -3.117188 8.78125 -3.800781 8.78125 -4.65625 L 8.78125 -7.78125 C 8.78125 -8.632812 8.535156 -9.316406 8.046875 -9.828125 C 7.566406 -10.335938 6.890625 -10.59375 6.015625 -10.59375 C 5.148438 -10.59375 4.46875 -10.335938 3.96875 -9.828125 C 3.476562 -9.316406 3.234375 -8.632812 3.234375 -7.78125 L 3.234375 -4.65625 C 3.234375 -3.800781 3.476562 -3.117188 3.96875 -2.609375 C 4.46875 -2.097656 5.148438 -1.84375 6.015625 -1.84375 Z "/>
</g>
<g id="glyph-1-4">
<path d="M 1.25 0 L 1.25 -8.8125 L 3.453125 -8.8125 L 3.453125 -7.65625 L 3.765625 -7.65625 C 3.910156 -7.96875 4.175781 -8.265625 4.5625 -8.546875 C 4.957031 -8.828125 5.550781 -8.96875 6.34375 -8.96875 C 7.03125 -8.96875 7.628906 -8.804688 8.140625 -8.484375 C 8.660156 -8.171875 9.0625 -7.738281 9.34375 -7.1875 C 9.632812 -6.632812 9.78125 -5.992188 9.78125 -5.265625 L 9.78125 0 L 7.546875 0 L 7.546875 -5.078125 C 7.546875 -5.742188 7.378906 -6.242188 7.046875 -6.578125 C 6.722656 -6.910156 6.257812 -7.078125 5.65625 -7.078125 C 4.96875 -7.078125 4.429688 -6.847656 4.046875 -6.390625 C 3.671875 -5.929688 3.484375 -5.296875 3.484375 -4.484375 L 3.484375 0 Z "/>
</g>
<g id="glyph-1-5">
<path d="M 5.265625 0.25 C 4.390625 0.25 3.613281 0.0625 2.9375 -0.3125 C 2.269531 -0.6875 1.75 -1.210938 1.375 -1.890625 C 1 -2.578125 0.8125 -3.378906 0.8125 -4.296875 L 0.8125 -4.515625 C 0.8125 -5.441406 0.992188 -6.242188 1.359375 -6.921875 C 1.734375 -7.609375 2.25 -8.132812 2.90625 -8.5 C 3.570312 -8.875 4.347656 -9.0625 5.234375 -9.0625 C 6.097656 -9.0625 6.847656 -8.867188 7.484375 -8.484375 C 8.128906 -8.097656 8.628906 -7.566406 8.984375 -6.890625 C 9.335938 -6.210938 9.515625 -5.421875 9.515625 -4.515625 L 9.515625 -3.75 L 3.09375 -3.75 C 3.113281 -3.144531 3.335938 -2.648438 3.765625 -2.265625 C 4.191406 -1.890625 4.710938 -1.703125 5.328125 -1.703125 C 5.960938 -1.703125 6.425781 -1.835938 6.71875 -2.109375 C 7.019531 -2.390625 7.242188 -2.691406 7.390625 -3.015625 L 9.234375 -2.0625 C 9.066406 -1.75 8.820312 -1.410156 8.5 -1.046875 C 8.1875 -0.691406 7.769531 -0.382812 7.25 -0.125 C 6.726562 0.125 6.066406 0.25 5.265625 0.25 Z M 3.109375 -5.421875 L 7.234375 -5.421875 C 7.191406 -5.929688 6.988281 -6.335938 6.625 -6.640625 C 6.257812 -6.953125 5.785156 -7.109375 5.203125 -7.109375 C 4.597656 -7.109375 4.117188 -6.953125 3.765625 -6.640625 C 3.410156 -6.335938 3.191406 -5.929688 3.109375 -5.421875 Z "/>
</g>
</g>
</defs>
<g fill="rgb(100%, 69.019608%, 0%)" fill-opacity="1">
<use xlink:href="#glyph-0-0" x="30" y="37.493164"/>
<use xlink:href="#glyph-0-1" x="40" y="37.493164"/>
<use xlink:href="#glyph-0-2" x="51" y="37.493164"/>
<use xlink:href="#glyph-0-3" x="62" y="37.493164"/>
<use xlink:href="#glyph-0-4" x="66" y="37.493164"/>
<use xlink:href="#glyph-0-5" x="77" y="37.493164"/>
<use xlink:href="#glyph-0-6" x="88" y="37.493164"/>
<use xlink:href="#glyph-0-7" x="98" y="37.493164"/>
<use xlink:href="#glyph-0-8" x="102" y="37.493164"/>
<use xlink:href="#glyph-0-9" x="113" y="37.493164"/>
<use xlink:href="#glyph-0-10" x="122" y="37.493164"/>
<use xlink:href="#glyph-0-9" x="126" y="37.493164"/>
<use xlink:href="#glyph-0-3" x="135" y="37.493164"/>
</g>
<g fill="rgb(100%, 69.019608%, 0%)" fill-opacity="1">
<use xlink:href="#glyph-1-0" x="140" y="37.493164"/>
<use xlink:href="#glyph-1-1" x="152" y="37.493164"/>
<use xlink:href="#glyph-1-2" x="163" y="37.493164"/>
<use xlink:href="#glyph-1-3" x="168" y="37.493164"/>
<use xlink:href="#glyph-1-4" x="180" y="37.493164"/>
<use xlink:href="#glyph-1-5" x="191" y="37.493164"/>
</g>
<g fill="rgb(100%, 69.019608%, 0%)" fill-opacity="1">
<use xlink:href="#glyph-0-3" x="201" y="37.493164"/>
<use xlink:href="#glyph-0-11" x="206" y="37.493164"/>
<use xlink:href="#glyph-0-9" x="218" y="37.493164"/>
<use xlink:href="#glyph-0-2" x="227" y="37.493164"/>
<use xlink:href="#glyph-0-9" x="238" y="37.493164"/>
</g>
</svg>
